<svg xmlns="http://www.w3.org/2000/svg" width="16" height="16" fill="currentColor" class="bi bi-ubuntu" viewBox="0 0 16 16">
  <path d="M11.202 4.4a6.33 6.33 0 0 0-3.202-2.136A6.33 6.33 0 0 0 4.4 4.4a6.33 6.33 0 0 0-2.136 3.202A6.33 6.33 0 0 0 4.4 11.2a6.33 6.33 0 0 0 3.202 2.136A6.33 6.33 0 0 0 11.2 11.2a6.33 6.33 0 0 0 2.136-3.202A6.33 6.33 0 0 0 11.202 4.4ZM2.765 7.6a5.33 5.33 0 0 1 1.824-2.798A5.33 5.33 0 0 1 7.6 2.765a5.33 5.33 0 0 1 2.798 1.824A5.33 5.33 0 0 1 12.235 7.6a5.33 5.33 0 0 1-1.824 2.798A5.33 5.33 0 0 1 7.6 12.235a5.33 5.33 0 0 1-2.798-1.824A5.33 5.33 0 0 1 2.765 7.6Z"/>
  <path d="M4.4 6.333a.833.833 0 1 1 1.666 0 .833.833 0 0 1-1.666 0Zm5.867 0a.833.833 0 1 1 1.666 0 .833.833 0 0 1-1.666 0Zm-2.934 4.134a.833.833 0 1 1 1.666 0 .833.833 0 0 1-1.666 0Z"/>
</svg>